<svg xmlns="http://www.w3.org/2000/svg" viewBox="0 0 350 40"><path fill="currentColor" fill-rule="evenodd" d="M18.5 21.5H20a130 130 0 0 0 13.2-1.1q7-1.2 12.6-3.4 9.4-3.6 14-10.4-1.5.6-2.8.4a5 5 0 0 1-4-4q-.2-1.5.4-3h1.2l-.2.3a4 4 0 0 0 .7 4.6q.9 1 2 1a4 4 0 0 0 2.7-.3l.3.7Q61 5 61.6 3.8q1.3-2.2 1-3.7h-.1 1q.4 1.5-.8 3.7l.8.3 1.3.6a294 294 0 0 0 26 9.5 9 9 0 0 1 5.3-3q4.3-1 9.2 2h.3l-.2.3a15 15 0 0 1-4.2 3.7l4.2 1q22.2 5.7 44.6 7.3v1A250 250 0 0 1 99.9 18l-2.5.7q-4.3.5-7.6-2.4l-.1-.1v-.2l.5-.8a293 293 0 0 1-23.1-8.4l-2.7-1q-.7-.5-1.3-.6l-.9-.4a30 30 0 0 1-16 13.3A60 60 0 0 1 26 22.3l-4 .2h-4V22h-.5V0h1zM97.3 18l1.7-.4-6.2-1.8-1.1.2-.1-.6-.8-.2-.5.7q3 2.7 7 2m7.5-4.6q-4.6-2.6-8.6-1.8-3 .7-4.8 2.7l2.4.8 8.6-1.6.1.6-7.5 1.3 5.5 1.6q2.3-1 4.3-3.6zM154.2 26q0-.8.5-1.3a2 2 0 0 1 2.6 0 2 2 0 0 1 0 2.6 2 2 0 0 1-2.6 0q-.5-.5-.5-1.3m178.3-4h-.5v.5h-2a133 133 0 0 1-13.4-1.1q-7-1.2-12.8-3.4c-7.4-3-13-7.5-16-13.3l-1 .3-3.9 1.7a311 311 0 0 1-23.2 8.3l.5.9.1.2-.1.1c-2 2-4.9 2.8-7.6 2.3q-1.2 0-2.5-.7l-5.2 1.4a249 249 0 0 1-44.9 7.3v-1q22.5-1.6 44.6-7.2l4.2-1.1q-2.3-1.3-4.2-3.7l-.2-.3.3-.1q4.9-3 9.2-2 3.1.7 5.2 3a290 290 0 0 0 23.4-8.4l2.7-1 1.3-.6.8-.3q-1.1-2.1-.8-3.8h1v.1q-.4 1.5.9 3.6l1.5 2.5.3-.7q1.5.7 2.6.5 1.2-.3 2-1.1 1-.9 1.2-2.1a4 4 0 0 0-.4-2.6l-.2-.2h1.1q.7 1.5.4 3a5 5 0 0 1-4 4q-1.3.1-2.8-.4A30 30 0 0 0 304 17a59 59 0 0 0 20 4.2l5.8.3h1.6V0h1zm-72.8-6-.5-.8-.8.2v.6l-1.2-.2-6.2 1.8 1.7.4q4 .6 7-2m-6-4.4q-4-.8-8.5 1.8 2 2.5 4.3 3.6l5.5-1.6-7.5-1.3v-.6l8.7 1.5 2.4-.7a8 8 0 0 0-4.8-2.7zm-58.4 15.7a2 2 0 0 1-2.6 0 2 2 0 0 1 0-2.6 2 2 0 0 1 2.6 0 2 2 0 0 1 0 2.6m-20.3-7 5.7 5.7-5.7 5.7-5.7-5.7z"/></svg>