<svg xmlns="http://www.w3.org/2000/svg" viewBox="0 0 460 640"><g fill="none" stroke="currentColor"><path stroke-linecap="round" stroke-width="2.4" d="M420 640c-20-80 10-150-30-220s-10-150-50-220q-45-75-150-120C140 60 90 56 30 60"/><path d="M426 640c-20-78 10-148-30-218"/><path stroke-width=".8" d="m404 596 6-6m-8-16 7-5m-5-17 7-4m-3-18 7-3m-5-19 7-2m-11-20 7-2"/><path stroke-linecap="round" stroke-width="1.4" d="M390 420c30-10 50-30 56-60M340 200c-40 0-70 14-90 36"/><path stroke-linejoin="round" stroke-width="1.881" d="M406 560c-2.77 8.09-6.6 12.93-12 12.88.49 7.04-5.49 10.78-10.33 6.96-1.14 7.56-8.74 11.83-14.1 6.38-3.3 6.46-11.96 7.48-14.07.97-4.35 3.21-12.44.45-17.81-5 1.14-7.56 6.06-14.55 11.47-14.51-2.12-6.5 5.49-10.78 11.95-7.48 1.14-7.57 9.8-8.58 15.16-3.13 1.67-5.94 8.7-6.43 12.45-.45 4.35-3.21 10.28-1.54 17.27 3.38Z"/><path stroke-linecap="round" stroke-width="1.368" d="m406 560-61.8 20.08m47.16-15.33-3.03 7.28m-8.36-3.58-2.23 9.72m-12.4-4.96-2.24 9.71m28.26-18.17-6.73-4.1m-4.66 7.8-7.52-6.54m-7.11 11.3-7.52-6.55"/><path stroke-linejoin="round" stroke-width="2.233" d="M406 559.99c-8.5 5.55-15.61 7.28-20.64 3.29-4.69 6.93-13.01 6.06-14.74-1.05-6.6 6.24-16.83 4.68-17.86-4.34-7.81 3.64-16.65-1.74-13.88-9.37-6.41-.17-11.96-8.67-13-17.7 6.6-6.23 16.3-9.18 21.33-5.19 2.78-7.63 13.01-6.07 16.65 1.74 6.6-6.24 15.44-.86 16.48 8.16 5.9-4.34 12.83.35 11.96 8.67 6.42.18 10.75 6.08 13.7 15.79Z"/><path stroke-linecap="round" stroke-width="1.6239999999999999" d="M406 559.99 333.5 533.6m55.32 20.13-8.15 4.6m-5.2-9.46-9.2 7.45m-7.97-13.7-9.2 7.46m39.72 3.65-3.3-8.76m-10.05 3.9-2.25-11.62m-14.92 5.37-2.25-11.62"/><path stroke-linejoin="round" stroke-width="1.881" d="M405.99 560c-8.52-.72-14.14-3.26-15.41-8.52-6.7 2.18-11.78-2.72-9.24-8.34-7.62.73-13.6-5.62-9.6-12.14-7.08-1.64-10.16-9.8-4.36-13.42-4.17-3.44-3.44-11.96.55-18.49 7.61-.72 15.59 2.36 16.85 7.62 5.8-3.63 11.79 2.72 10.15 9.79 7.62-.73 10.7 7.43 6.7 13.96 6.17.18 8.35 6.88 3.45 11.96 4.17 3.44 3.99 9.6.9 17.58Z"/><path stroke-linecap="round" stroke-width="1.368" d="m405.99 560-34.44-55.1m26.28 42.05-7.8-1.18m1.46-8.97-9.97.18m1.81-13.23-9.97.18m24.47 23.02 2.36-7.52m-8.7-2.63 4.53-8.88m-12.69-4.17 4.53-8.88"/><path stroke-linejoin="round" stroke-width="1.6500000000000001" d="M446 360c-7.1-2.42-11.34-5.78-11.3-10.52-6.17.43-9.45-4.82-6.1-9.06-6.63-1-10.38-7.67-5.6-12.38-5.67-2.88-6.56-10.48-.85-12.34-2.82-3.81-.4-10.9 4.39-15.62 6.63 1 12.76 5.32 12.73 10.06 5.7-1.85 9.45 4.82 6.56 10.49 6.63 1 7.52 8.6 2.74 13.3 5.21 1.46 5.64 7.63.4 10.91 2.81 3.82 1.35 9.03-2.97 15.16Z"/><path stroke-linecap="round" stroke-width="1.2000000000000002" d="m446 360-17.61-54.2m13.44 41.36-6.38-2.66m3.14-7.32-8.53-1.97m4.36-10.87-8.53-1.97m15.94 24.8 3.6-5.91m-6.84-4.08 5.74-6.6m-9.91-6.24 5.74-6.6"/><path stroke-linejoin="round" stroke-width="1.9800000000000002" d="M446 360c-4.91-7.54-6.45-13.84-2.91-18.3-6.15-4.15-5.38-11.54.93-13.07-5.54-5.85-4.15-14.92 3.84-15.84-3.22-6.92 1.55-14.76 8.31-12.3.16-5.69 7.7-10.6 15.7-11.53 5.53 5.85 8.14 14.46 4.6 18.92 6.77 2.46 5.38 11.53-1.54 14.76 5.53 5.85.76 13.69-7.23 14.6 3.84 5.24-.32 11.39-7.7 10.62-.15 5.69-5.38 9.53-14 12.14Z"/><path stroke-linecap="round" stroke-width="1.4400000000000002" d="m446 360 23.4-64.27m-17.85 49.05-4.08-7.23m8.39-4.61-6.62-8.15m12.16-7.07-6.61-8.16m-3.24 35.22 7.76-2.92m-3.45-8.92 10.3-2m-4.76-13.22 10.3-2"/><path stroke-linejoin="round" stroke-width="1.6500000000000001" d="M446 360c.64-7.48 2.87-12.4 7.48-13.52-1.91-5.88 2.38-10.33 7.31-8.1-.63-6.68 4.93-11.93 10.66-8.43 1.43-6.2 8.58-8.9 11.76-3.82 3.02-3.65 10.5-3.02 16.22.48.64 6.68-2.07 13.68-6.68 14.79 3.18 5.09-2.39 10.33-8.59 8.9.64 6.68-6.52 9.38-12.24 5.88-.16 5.4-6.04 7.32-10.5 3.02-3.02 3.66-8.42 3.5-15.42.8Z"/><path stroke-linecap="round" stroke-width="1.2000000000000002" d="m446 360 48.34-30.2m-36.89 23.04 1.04-6.83m7.87 1.27-.16-8.75m11.6 1.6-.15-8.75m-20.2 21.46 6.6 2.07m2.3-7.63 7.8 3.97m3.65-11.13 7.8 3.98"/><path stroke-width="1.881" d="m446 360-2.92 8.04"/><path stroke-linejoin="round" stroke-width="1.881" d="M452.72 371.55c.29 9.2-3.66 15.05-15.5 12.56-10.66-5.7-9.92-12.71-3.79-19.58Z"/><path stroke-width="1.1969999999999998" d="m449.94 374.18-17.39 2.77m17.24 2.64-15.2 1.74m9.5-11.1-13.58 2.34m20.45 3.8-11.68-7.9"/><path stroke-width="1.881" d="M445.26 387.03c-3.66 15.05-11.99 22.94-17.4 22.8-4.23-3.37-5.54-14.77 1.33-28.64"/><path stroke-linecap="round" stroke-width="1.881" d="m427.87 409.82-1.17 3.21"/><path stroke-width="1.1969999999999998" d="M439.12 393.9q-6.57 3.07-9.64-3.51m6.72 11.54q-6.58 3.07-9.64-3.5"/><path stroke-width="1.7050000000000003" d="m446 360-5.77 5.19"/><path stroke-linejoin="round" stroke-width="1.7050000000000003" d="M446.45 372.1c-3.68 7.49-9.33 10.48-17.74 3.46-6.1-9.1-2.53-14.4 5.3-17.29Z"/><path stroke-width="1.085" d="m443.11 373.02-15.09-5.18m12.68 9.44-12.9-5.06m12.32-4.85-11.87-3.91M443 375.21l-6-11.3"/><path stroke-width="1.7050000000000003" d="M433.9 381.32c-9.33 10.48-19.35 13.25-23.62 10.83-1.96-4.5 1.84-14.17 13.25-22.35"/><path stroke-linecap="round" stroke-width="1.7050000000000003" d="m410.28 392.15-2.3 2.08"/><path stroke-width="1.085" d="M426.07 384.2q-6.57-.35-6.23-6.91m.47 12.1q-6.57-.35-6.23-6.92"/><path stroke-linejoin="round" stroke-width="1.804" d="M372 440c-1.97 7.96-5.21 12.9-10.38 13.31 1.05 6.68-4.35 10.75-9.29 7.5-.46 7.33-7.36 12.04-12.95 7.28-2.6 6.45-10.8 8.15-13.35 2.11-3.9 3.43-11.85 1.47-17.44-3.29.46-7.32 4.58-14.41 9.75-14.83-2.57-6.03 4.34-10.75 10.8-8.14.45-7.32 8.64-9.02 14.22-4.26 1.1-5.8 7.77-6.86 11.85-1.46 3.89-3.44 9.7-2.34 16.79 1.78Z"/><path stroke-linecap="round" stroke-width="1.312" d="m372 440-57.37 24.35m43.78-18.59-2.28 7.2m-8.29-2.71-1.32 9.47m-12.26-3.7-1.33 9.47m25.48-19.73-6.77-3.36m-3.8 7.85-7.73-5.63m-5.85 11.4-7.74-5.63"/><path stroke-linejoin="round" stroke-width="2.145" d="M372 440c-7.68 6.01-14.34 8.27-19.48 4.87-3.9 7.03-11.94 6.9-14.2.23-5.78 6.53-15.7 5.89-17.45-2.66-7.17 4.14-16.08-.27-14.06-7.8-6.16.37-12.18-7.3-13.93-15.84 5.79-6.53 14.84-10.16 19.98-6.76 2.02-7.54 11.95-6.9 16.08.27 5.79-6.53 14.7-2.12 16.45 6.42 5.28-4.64 12.31-.74 12.18 7.3 6.15-.37 10.8 4.92 14.42 13.96Z"/><path stroke-linecap="round" stroke-width="1.56" d="m372 440-71.58-19.18m54.62 14.63-7.42 5.08m-5.76-8.61-8.18 7.9m-8.78-12.44-8.17 7.9m38.31.17-3.88-8.1m-9.3 4.57-3.13-10.93m-13.83 6.39-3.12-10.94"/><path stroke-linejoin="round" stroke-width="1.804" d="M372 440c-8.2.01-13.77-1.94-15.43-6.86-6.22 2.64-11.48-1.61-9.52-7.2-7.22 1.34-13.46-4.23-10.2-10.8-6.89-.96-10.51-8.5-5.27-12.44-4.27-2.95-4.3-11.15-1.03-17.71 7.22-1.33 15.1.95 16.74 5.86 5.24-3.95 11.49 1.62 10.52 8.5 7.21-1.32 10.84 6.21 7.57 12.78 5.9-.34 8.54 5.89 4.3 11.14 4.26 2.95 4.6 8.85 2.33 16.73Z"/><path stroke-linecap="round" stroke-width="1.312" d="m372 440-37.5-49.78m28.62 37.99-7.54-.48m.63-8.7-9.5 1.01m.62-12.79-9.5 1m25.3 19.96 1.62-7.39m-8.54-1.78 3.6-8.86m-12.48-2.93 3.59-8.86"/><path stroke-width="1.881" d="m372 440-6.54 5.5"/><path stroke-linejoin="round" stroke-width="1.881" d="M372.05 453.36c-4.35 8.11-10.69 11.2-19.7 3.13-6.38-10.27-2.24-15.98 6.51-18.85Z"/><path stroke-width="1.1969999999999998" d="m368.33 454.24-16.44-6.29m13.61 10.9-14.03-6.08m13.78-4.86-12.94-4.78m15.81 13.52-6.17-12.67"/><path stroke-width="1.881" d="M357.85 463.04c-10.69 11.2-21.84 13.87-26.45 11.03-1.99-5.02 2.57-15.55 15.46-24.13"/><path stroke-linecap="round" stroke-width="1.881" d="m331.4 474.07-2.62 2.2"/><path stroke-width="1.1969999999999998" d="M349.1 465.91q-7.22-.63-6.59-7.86m.05 13.36q-7.23-.63-6.6-7.86"/><path stroke-width="1.7050000000000003" d="m372 440-7.57 1.61"/><path stroke-linejoin="round" stroke-width="1.7050000000000003" d="M366.36 450.7c-6.94 4.65-13.32 4.43-17.1-5.87-.74-10.93 5-13.74 13.23-12.31Z"/><path stroke-width="1.085" d="m363 449.84-10.48-12.04m6.26 14.52-8.64-10.84m13.1 1.97-8.33-9.32m6.9 17.55.45-12.78"/><path stroke-width="1.7050000000000003" d="M350.88 452.42c-13.33 4.41-23.4 1.8-25.87-2.43.55-4.87 8.68-11.35 22.64-12.74"/><path stroke-linecap="round" stroke-width="1.7050000000000003" d="m325 450-3.03.64"/><path stroke-width="1.085" d="M342.65 451q-5.52-3.59-1.93-9.1m-5.65 10.7q-5.52-3.58-1.93-9.1"/><path stroke-linejoin="round" stroke-width="1.7270000000000003" d="M362 300c-2.84-7.33-3-12.99.82-16.15-4.49-4.66-2.5-10.81 3.17-10.98-3.67-6-.84-13.48 6.15-12.82-1.5-6.49 4-12.31 9.32-8.98 1.17-4.83 8.49-7.66 15.48-7 3.66 6 4.33 13.82.5 16.98 5.32 3.33 2.5 10.82-4 12.32 3.67 5.99-1.82 11.81-8.81 11.15 2.33 5.15-2.33 9.65-8.5 7.65-1.16 4.83-6.31 7.16-14.14 7.83Z"/><path stroke-linecap="round" stroke-width="1.2560000000000002" d="m362 300 31.6-50.6m-24.12 38.61-2.16-6.9m7.99-2.42-4.17-8.15m11.65-3.83-4.16-8.15M369.48 288l7.16-1.08m-1.33-8.24 9.15.17m-1.67-12.15 9.16.16"/><path stroke-linejoin="round" stroke-width="2.068" d="M362 300c2.73-9 6.74-14.45 12.68-14.62-.8-7.7 5.62-12.05 11.08-8.03.97-8.35 9.16-13.34 15.26-7.56 3.37-7.22 12.85-8.67 15.42-1.6 4.66-3.7 13.65-.97 19.76 4.8-.96 8.36-6.1 16.23-12.04 16.4 2.57 7.06-5.62 12.04-12.85 8.67-.96 8.35-10.44 9.8-16.54 4.02-1.6 6.59-9.32 7.4-13.66.97-4.65 3.7-11.24 2.09-19.11-3.05Z"/><path stroke-linecap="round" stroke-width="1.504" d="m362 300 67.13-24.43m-51.23 18.65 3.05-8.12m9.32 3.61 2.08-10.76m13.82 4.98 2.08-10.76m-30.35 21.05 7.55 4.25m4.82-8.76 8.51 6.9m7.39-12.68 8.51 6.9"/><path stroke-linejoin="round" stroke-width="1.7270000000000003" d="M362 300c6.42-4.52 11.87-6.05 15.86-3.1 3.44-5.49 9.9-5.04 11.43.41 4.92-5 12.87-4.07 13.92 2.87 5.94-3.02 12.92.9 10.98 6.87 4.96-.04 9.48 6.38 10.52 13.33-4.92 5-12.35 7.54-16.35 4.59-1.94 5.97-9.89 5.04-12.91-.9-4.93 5-11.9 1.09-12.96-5.86-4.44 3.51-9.92.08-9.48-6.38-4.96.04-8.47-4.4-11.01-11.83Z"/><path stroke-linecap="round" stroke-width="1.2560000000000002" d="m362 300 56.74 18.44m-43.3-14.07 6.18-3.77m4.27 7.16 6.9-6m6.54 10.37 6.9-6.01m-30.8-1.75 2.79 6.68m7.67-3.29 2.05 8.92m11.39-4.55 2.05 8.92"/><path stroke-linejoin="round" stroke-width="1.573" d="M249.99 236c3.7 6.12 4.74 11.17 1.8 14.61 4.77 3.47 3.95 9.31-1.1 10.36 4.24 4.8 2.89 11.96-3.49 12.46 2.37 5.59-1.63 11.68-6.94 9.54-.28 4.51-6.4 8.21-12.77 8.72-4.24-4.8-6.07-11.7-3.14-15.15-5.3-2.14-3.95-9.3 1.64-11.68-4.24-4.8-.23-10.88 6.14-11.4-2.9-4.25.57-9.02 6.4-8.2.29-4.52 4.55-7.42 11.46-9.26Z"/><path stroke-linecap="round" stroke-width="1.144" d="m249.99 236-20.36 50.39m15.53-38.45 3.04 5.85m-6.79 3.43 5.03 6.65m-9.85 5.28 5.03 6.66m3.54-27.87-6.24 2.1m2.5 7.18-8.24 1.3m3.41 10.63-8.23 1.3"/><path stroke-linejoin="round" stroke-width="1.881" d="M250 236.01c-1.02 8.5-3.76 14.02-9.05 15.1 1.94 6.78-3.13 11.68-8.66 8.95.46 7.63-6.1 13.39-12.47 9.18-1.88 7-10.14 9.8-13.56 3.87-3.59 4.05-12.08 3.03-18.46-1.19-.46-7.63 2.9-15.5 8.2-16.58-3.42-5.92 3.13-11.68 10.14-9.8-.46-7.63 7.8-10.43 14.18-6.21.4-6.16 7.18-8.1 12.08-3.03 3.58-4.04 9.74-3.65 17.6-.29Z"/><path stroke-linecap="round" stroke-width="1.368" d="m250 236.01-56.27 32.5m42.94-24.8-1.45 7.75m-8.92-1.77-.16 9.97m-13.16-2.27-.17 9.97m23.86-23.65-7.43-2.62m-2.94 8.6-8.71-4.84m-4.61 12.54-8.72-4.84"/><path stroke-linejoin="round" stroke-width="1.573" d="M250 236c-5.05 5.07-9.7 7.3-13.74 5.3-2.21 5.46-8.08 6.08-10.31 1.43-3.63 5.27-10.91 5.69-12.95-.38-4.84 3.66-11.72 1.24-10.93-4.42-4.44.82-9.51-4.22-11.55-10.29 3.63-5.26 9.9-8.72 13.94-6.7.8-5.67 8.08-6.09 11.73-1.24 3.63-5.27 10.5-2.86 12.54 3.2 3.43-3.85 8.9-1.63 9.52 4.23 4.44-.82 8.3 2.61 11.75 8.87Z"/><path stroke-linecap="round" stroke-width="1.144" d="m250 236-53.81-7.56m41.06 5.77-4.94 4.36m-4.97-5.75-5.24 6.48m-7.5-8.27-5.25 6.48m27.9-3.3-3.55-5.55m-6.36 4.16-3.25-7.68m-9.5 5.89-3.25-7.68"/><path stroke-width="1.881" d="m250 236-1.48 8.42"/><path stroke-linejoin="round" stroke-width="1.881" d="M258.63 246.2c1.88 9.02-1 15.45-13.08 15.06-11.49-3.76-11.98-10.8-7.13-18.62Z"/><path stroke-width="1.1969999999999998" d="m256.35 249.27-16.64 5.75m17.43-.4-14.66 4.36m7.43-12.58-12.98 4.66m20.8.2-12.87-5.75"/><path stroke-width="1.881" d="M253.97 262.74c-.99 15.46-7.82 24.67-13.17 25.46-4.75-2.57-8.02-13.57-3.67-28.43"/><path stroke-linecap="round" stroke-width="1.881" d="m240.8 288.2-.6 3.37"/><path stroke-width="1.1969999999999998" d="M249.12 270.57q-5.94 4.16-10.1-1.78m8.62 10.2q-5.95 4.16-10.1-1.78"/><path stroke-width="1.7050000000000003" d="m250 236-4.76 6.11"/><path stroke-linejoin="round" stroke-width="1.7050000000000003" d="M252.56 247.84c-2.32 8.01-7.36 11.94-16.87 6.48-7.6-7.9-5-13.74 2.22-17.93Z"/><path stroke-width="1.085" d="m249.43 249.32-15.76-2.48m14.12 7.1-13.59-2.75m11.3-6.9-12.36-1.8m16.56 9.01-7.86-10.08"/><path stroke-width="1.7050000000000003" d="M241.8 259.1c-7.37 11.94-16.76 16.4-21.38 14.77-2.7-4.09-.64-14.28 9.17-24.32"/><path stroke-linecap="round" stroke-width="1.7050000000000003" d="m220.42 273.87-1.9 2.44"/><path stroke-width="1.085" d="M234.59 263.3q-6.53.8-7.33-5.73m2.55 11.83q-6.52.8-7.32-5.72"/><path stroke-linejoin="round" stroke-width="1.7270000000000003" d="M318 168.01c-5.44 5.66-10.5 8.2-14.98 6.07-2.32 6.04-8.75 6.83-11.29 1.78-3.88 5.85-11.86 6.45-14.21-.17-5.25 4.1-12.85 1.59-12.09-4.64-4.86.98-10.52-4.46-12.87-11.08 3.88-5.85 10.68-9.76 15.17-7.62.76-6.24 8.75-6.84 12.85-1.59 3.88-5.85 11.48-3.34 13.83 3.28 3.7-4.3 9.73-1.97 10.53 4.46 4.86-.99 9.15 2.7 13.06 9.51Z"/><path stroke-linecap="round" stroke-width="1.2560000000000002" d="m318 168.01-59.21-7.27m45.19 5.55-5.35 4.88m-5.56-6.22-5.63 7.22m-8.4-8.94-5.62 7.21m30.56-4.15-4-6.03m-6.9 4.69-3.73-8.37m-10.3 6.65-3.72-8.37"/><path stroke-linejoin="round" stroke-width="2.068" d="M318.01 168c-9.3 1.33-15.95 0-18.61-5.31-6.65 3.98-13.3 0-11.96-6.65-7.98 2.66-15.96-2.66-13.3-10.63-7.97 0-13.3-7.98-7.97-13.3-5.32-2.66-6.65-11.96-4-19.94 7.98-2.66 17.29-1.33 19.95 3.99 5.32-5.32 13.3 0 13.3 7.98 7.97-2.66 13.28 5.31 10.63 13.29 6.64-1.33 10.63 5.32 6.64 11.96 5.32 2.66 6.65 9.3 5.32 18.61Z"/><path stroke-linecap="round" stroke-width="1.504" d="m318.01 168-50.52-50.51m38.56 38.55-8.64.66m-.67-9.97-10.63 2.66m-1.33-14.62-10.64 2.66m31.9 18.61.67-8.64m-9.97-.67 2.66-10.63m-14.62-1.33 2.66-10.63"/><path stroke-linejoin="round" stroke-width="1.7270000000000003" d="M318 168c-6.8-3.9-10.5-8.2-9.51-13.06-6.43-.8-8.75-6.84-4.46-10.53-6.61-2.35-9.13-9.95-3.28-13.83-5.25-4.1-4.64-12.09 1.59-12.85-2.13-4.48 1.78-11.3 7.63-15.17 6.61 2.35 12.05 8 11.07 12.87 6.23-.76 8.75 6.84 4.65 12.09 6.61 2.35 6 10.33.16 14.21 5.06 2.55 4.26 8.97-1.78 11.3 2.13 4.48-.4 9.53-6.07 14.97Z"/><path stroke-linecap="round" stroke-width="1.2560000000000002" d="m318 168-7.27-59.21m5.55 45.19-6.03-4m4.7-6.9-8.37-3.73m6.64-10.3-8.37-3.72m11.43 28.65 4.88-5.34m-6.22-5.57 7.22-5.63m-8.94-8.4 7.22-5.62"/><path stroke-linejoin="round" stroke-width="1.6500000000000001" d="M240 100c7.48.5 12.45 2.65 13.64 7.24 5.85-2.01 10.37 2.2 8.23 7.17 6.67-.75 12.01 4.72 8.62 10.5 6.22 1.33 9.05 8.43 4.01 11.7 3.71 2.96 3.2 10.44-.2 16.23-6.66.75-13.7-1.83-14.9-6.42-5.02 3.26-10.37-2.2-9.04-8.43-6.67.75-9.5-6.36-6.1-12.14-5.4-.07-7.42-5.92-3.2-10.44-3.7-2.96-3.64-8.37-1.06-15.41Z"/><path stroke-linecap="round" stroke-width="1.2000000000000002" d="m240 100 31.04 47.8m-23.69-36.48 6.85.92m-1.13 7.89 8.74-.31m-1.39 11.63 8.74-.31m-21.81-19.82-1.95 6.64m7.67 2.17-3.84 7.86m11.2 3.46-3.85 7.86"/><path stroke-linejoin="round" stroke-width="1.9800000000000002" d="M240 100c6.7 6.01 9.81 11.7 7.55 16.93 7.02 2.42 8.18 9.75 2.49 12.86 6.86 4.22 7.87 13.34.38 16.3 4.9 5.85 2.33 14.66-4.84 14.03 1.32 5.54-4.69 12.24-12.17 15.2-6.86-4.22-11.61-11.86-9.35-17.08-7.17-.63-8.18-9.75-2.33-14.66-6.86-4.22-4.28-13.03 3.2-15.98-5.06-4.06-2.64-11.08 4.69-12.24-1.32-5.54 2.73-10.6 10.38-15.36Z"/><path stroke-linecap="round" stroke-width="1.4400000000000002" d="m240 100-5.96 68.14m4.54-52 5.81 5.93m-6.9 6.62 8.5 6.17m-9.92 9.97 8.5 6.17m-5.99-34.86-6.74 4.83m5.65 7.72-9.44 4.6m8.02 11.54-9.43 4.6"/><path stroke-linejoin="round" stroke-width="1.6500000000000001" d="M240 100c1.32 7.39.45 12.72-3.72 15 3.37 5.18.37 10.6-4.97 9.72 2.35 6.28-1.67 12.8-8.1 10.9.22 6.35-6 10.82-10.38 6.72-1.98 4.32-9.36 5.64-15.8 3.74-2.34-6.29-1.53-13.74 2.63-16.01-4.39-4.1-.37-10.6 6-10.82-2.35-6.29 3.86-10.75 10.3-8.85-1.25-5.27 3.94-8.63 9.35-5.64 1.97-4.31 7.24-5.56 14.7-4.76Z"/><path stroke-linecap="round" stroke-width="1.2000000000000002" d="m240 100-38.87 41.7m29.67-31.82.77 6.87m-7.94.8 2.42 8.41m-11.62 1.47 2.41 8.4m13.96-25.95-6.91-.3m-.26 7.98-8.55-1.83m-.65 11.7-8.56-1.82"/><path stroke-width="1.881" d="m240 100 2.93 8.03"/><path stroke-linejoin="round" stroke-width="1.881" d="M252.57 104.52c6.14 6.86 6.87 13.88-3.79 19.58-11.83 2.48-15.78-3.36-15.49-12.56Z"/><path stroke-width="1.1969999999999998" d="m252.14 108.32-11.54 13.3m14.9-9.07-10.52 11.11m.14-14.6-8.9 10.51m18.1-10.23-14.02 1.47"/><path stroke-width="1.881" d="M256.81 121.17c6.87 13.88 5.56 25.28 1.33 28.64-5.4.15-13.74-7.74-17.4-22.79"/><path stroke-linecap="round" stroke-width="1.881" d="m258.14 149.8 1.17 3.22"/><path stroke-width="1.1969999999999998" d="M256.52 130.38q-3.06 6.57-9.64 3.5m12.57 4.53q-3.07 6.58-9.64 3.51"/><path stroke-width="1.7050000000000003" d="m240 100-1.08 7.67"/><path stroke-linejoin="round" stroke-width="1.7050000000000003" d="M248.13 108.96c2 8.1-.4 14.03-11.37 14.05-10.52-3.04-11.2-9.4-7.05-16.64Z"/><path stroke-width="1.085" d="m246.17 111.81-14.9 5.74m15.78-.92-13.14 4.42m6.33-11.63-11.6 4.63m18.84-.49-11.84-4.8"/><path stroke-width="1.7050000000000003" d="M244.44 124.1c-.4 14.02-6.3 22.59-11.13 23.47-4.39-2.18-7.7-12.04-4.22-25.63"/><path stroke-linecap="round" stroke-width="1.7050000000000003" d="m233.31 147.57-.43 3.07"/><path stroke-width="1.085" d="M240.3 131.34q-5.26 3.95-9.22-1.3m8.13 8.97q-5.25 3.96-9.2-1.3"/><path stroke-linejoin="round" stroke-width="1.573" d="M170 74c-7.1.76-12.12-.42-14-4.54-5.16 2.86-10.1-.35-8.92-5.37-6.13 1.81-12.06-2.44-9.82-8.43-6.07-.22-9.9-6.42-5.71-10.32-3.98-2.16-4.74-9.27-2.5-15.27 6.13-1.8 13.17-.55 15.05 3.57 4.18-3.9 10.1.35 9.89 6.41 6.13-1.8 9.96 4.4 7.73 10.39 5.09-.83 7.94 4.32 4.74 9.27 3.97 2.16 4.8 7.25 3.54 14.29Z"/><path stroke-linecap="round" stroke-width="1.144" d="m170 74-37.06-39.74m28.29 30.33-6.59.27m-.24-7.6-8.16 1.75m-.62-11.16-8.15 1.74m23.76 15 .73-6.55m-7.56-.77 2.3-8.02m-11.08-1.4 2.3-8.01"/><path stroke-linejoin="round" stroke-width="1.881" d="M170 74c-7.26-4.52-11.12-9.33-9.86-14.6-6.96-1.1-9.26-7.76-4.45-11.62-7.11-2.81-9.56-11.18-3.05-15.18-5.55-4.66-4.6-13.33 2.22-13.93-2.15-4.96 2.36-12.22 8.88-16.22 7.11 2.8 12.82 9.17 11.56 14.43 6.81-.6 9.26 7.78 4.6 13.33 7.11 2.81 6.15 11.48-.36 15.48 5.4 2.96 4.3 9.93-2.37 12.23 2.15 4.96-.8 10.37-7.17 16.07Z"/><path stroke-linecap="round" stroke-width="1.368" d="m170 74-5.67-64.74m4.33 49.4-6.41-4.59m5.36-7.33-8.96-4.37m7.62-10.96-8.96-4.37m11.35 31.62 5.51-5.63m-6.56-6.3 8.07-5.85m-9.4-9.47 8.06-5.86"/><path stroke-linejoin="round" stroke-width="1.573" d="M170 74c-2.46-6.7-2.52-11.86 1.01-14.68-4.01-4.32-2.1-9.9 3.06-9.96-3.24-5.51-.55-12.29 5.8-11.57-1.25-5.93 3.84-11.15 8.64-8.04 1.13-4.37 7.85-6.83 14.2-6.12 3.24 5.52 3.72 12.65.19 15.47 4.8 3.12 2.1 9.9-3.83 11.15 3.24 5.52-1.86 10.73-8.21 10.02 2.04 4.73-2.28 8.75-7.85 6.83-1.14 4.38-5.87 6.42-13 6.9Z"/><path stroke-linecap="round" stroke-width="1.144" d="m170 74 29.6-45.57M177 63.21l-1.86-6.32m7.31-2.07-3.66-7.5m10.67-3.3-3.66-7.5m-8.8 26.69 6.54-.87m-1.09-7.52 8.34.3m-1.33-11.1 8.34.3"/><path stroke-linejoin="round" stroke-width="1.573" d="M100 60c7.14.48 11.87 2.52 13 6.9 5.58-1.92 9.9 2.1 7.86 6.83 6.35-.71 11.45 4.5 8.2 10.02 5.94 1.26 8.64 8.04 3.84 11.15 3.54 2.82 3.05 9.95-.19 15.47-6.35.72-13.06-1.75-14.2-6.12-4.8 3.11-9.9-2.1-8.63-8.04-6.36.72-9.05-6.06-5.81-11.57-5.16-.06-7.07-5.64-3.05-9.95-3.54-2.82-3.48-7.98-1.02-14.7Z"/><path stroke-linecap="round" stroke-width="1.144" d="m100 60 29.6 45.57M107 70.8l6.54.87m-1.09 7.53 8.34-.3M119.47 90l8.34-.3M107 70.78l-1.86 6.33m7.31 2.07-3.66 7.49m10.67 3.3-3.66 7.5"/><path stroke-linejoin="round" stroke-width="1.881" d="M100 60c6.37 5.71 9.33 11.12 7.18 16.08 6.66 2.3 7.77 9.26 2.36 12.22 6.52 4 7.48 12.67.37 15.48 4.66 5.56 2.21 13.93-4.6 13.33 1.25 5.26-4.45 11.63-11.57 14.44-6.51-4-11.03-11.26-8.88-16.23-6.81-.6-7.77-9.26-2.21-13.92-6.52-4-4.07-12.37 3.04-15.18-4.8-3.86-2.5-10.52 4.45-11.63C88.9 69.33 92.74 64.52 100 60Z"/><path stroke-linecap="round" stroke-width="1.368" d="m100 60-5.66 64.74m4.32-49.4 5.52 5.63m-6.56 6.29 8.07 5.86m-9.41 9.47 8.07 5.86m-5.69-33.11-6.4 4.58m5.36 7.34-8.97 4.36m7.63 10.97-8.97 4.37"/><path stroke-linejoin="round" stroke-width="1.573" d="M100 60c1.26 7.03.43 12.12-3.54 14.28 3.2 4.95.35 10.11-4.74 9.28 2.24 5.99-1.6 12.2-7.73 10.38.21 6.07-5.7 10.32-9.9 6.42-1.87 4.11-8.91 5.37-15.04 3.56-2.24-6-1.47-13.1 2.5-15.26-4.18-3.9-.35-10.1 5.7-10.32-2.22-6 3.7-10.25 9.83-8.44-1.19-5.02 3.76-8.22 8.92-5.37 1.88-4.11 6.9-5.3 14-4.53Z"/><path stroke-linecap="round" stroke-width="1.144" d="M100 60 62.96 99.74M91.23 69.4l.73 6.55m-7.56.77 2.3 8.01m-11.07 1.4 2.3 8.02m13.3-24.75-6.59-.28m-.24 7.6-8.15-1.74m-.62 11.15-8.16-1.74"/><path stroke-width="1.881" d="m100 60 2.2 8.26"/><path stroke-linejoin="round" stroke-width="1.881" d="M112.12 65.6c5.52 7.38 5.63 14.43-5.48 19.18-12.01 1.44-15.43-4.72-14.34-13.86Z"/><path stroke-width="1.1969999999999998" d="M111.35 69.35 98.7 81.6m15.63-7.73L102.9 84.01m1.41-14.54-9.79 9.7m18.94-8.6-14.1.23"/><path stroke-width="1.881" d="M114.9 82.57c5.63 14.42 3.33 25.66-1.18 28.64-5.4-.33-13.01-8.91-15.34-24.22"/><path stroke-linecap="round" stroke-width="1.881" d="m113.72 111.2.88 3.3"/><path stroke-width="1.1969999999999998" d="M113.8 91.7q-3.62 6.3-9.9 2.66m12.12 5.6q-3.63 6.3-9.91 2.66"/><path stroke-width="1.7050000000000003" d="m100 60-1.74 7.55"/><path stroke-linejoin="round" stroke-width="1.7050000000000003" d="M107.32 69.64c1.28 8.25-1.63 13.94-12.55 13-10.22-3.94-10.34-10.33-5.57-17.19Z"/><path stroke-width="1.085" d="m105.11 72.31-15.33 4.41m15.8.47L92.1 80.44m7.32-11.03L87.45 73m18.82 1.16L94.9 68.36"/><path stroke-width="1.7050000000000003" d="M102.32 84.4c-1.62 13.93-8.25 21.95-13.13 22.41-4.18-2.55-6.62-12.66-1.97-25.9"/><path stroke-linecap="round" stroke-width="1.7050000000000003" d="m89.2 106.81-.7 3.02"/><path stroke-width="1.085" d="M97.56 91.25q-5.58 3.48-9.06-2.1m7.32 9.65q-5.58 3.48-9.07-2.1"/><path stroke-linejoin="round" stroke-width="1.4960000000000002" d="M30 60c.13 6.79-1.41 11.45-5.46 12.89 2.28 5.12-1.17 9.54-5.83 8 1.2 5.96-3.31 11.22-8.8 8.6C9.2 95.23 3 98.35-.36 94.06c-2.37 3.59-9.17 3.72-14.66 1.1-1.21-5.95.56-12.52 4.62-13.96-3.35-4.28 1.17-9.54 6.9-8.84-1.21-5.96 4.99-9.08 10.48-6.46-.37-4.9 4.75-7.17 9.17-3.72 2.38-3.59 7.27-3.95 13.84-2.18Z"/><path stroke-linecap="round" stroke-width="1.088" d="m30 60-40.73 31.8m31.08-24.27-.28 6.26m-7.22-.4.97 7.87M3.2 80.92l.98 7.87m16.17-21.26-6.14-1.24m-1.36 7.1-7.4-2.85M3.2 80.92l-7.4-2.84"/><path stroke-linejoin="round" stroke-width="1.793" d="M30 60c-4.89 6.52-9.78 9.78-14.67 8.15-1.63 6.52-8.15 8.15-11.41 3.26-3.26 6.52-11.41 8.15-14.67 1.63-4.89 4.89-13.04 3.26-13.04-3.26-4.89 1.63-11.41-3.26-14.67-9.78 3.26-6.52 9.78-11.41 14.67-9.78 0-6.52 8.15-8.15 13.04-3.26 3.26-6.52 11.41-4.89 14.67 1.63 3.26-4.89 9.78-3.26 11.41 3.26C20.22 50.22 25.11 53.48 30 60Z"/><path stroke-linecap="round" stroke-width="1.304" d="M30 60h-61.94m47.27 0-4.89 5.7M3.92 60l-4.89 8.15M-10.75 60l-4.89 8.15M15.33 60l-4.89-5.7M3.92 60l-4.89-8.15M-10.75 60l-4.89-8.15"/><path stroke-linejoin="round" stroke-width="1.4960000000000002" d="M30 60c-6.57 1.78-11.46 1.42-13.83-2.17-4.43 3.45-9.55 1.17-9.18-3.72-5.5 2.62-11.69-.5-10.48-6.46-5.73.7-10.25-4.56-6.9-8.84-4.05-1.44-5.83-8-4.62-13.97 5.49-2.61 12.29-2.48 14.67 1.1C3 21.67 9.2 24.79 9.9 30.5c5.5-2.6 10.02 2.65 8.81 8.61 4.66-1.54 8.1 2.88 5.83 8 4.05 1.44 5.6 6.1 5.46 12.9Z"/><path stroke-linecap="round" stroke-width="1.088" d="m30 60-40.73-31.8m31.08 24.27-6.14 1.24m-1.36-7.1-7.4 2.85M3.2 39.08l-7.4 2.84m24.55 10.55-.28-6.26m-7.22.4.97-7.87m-10.62.34.98-7.87"/></g></svg>
