<svg xmlns="http://www.w3.org/2000/svg" viewBox="0 0 460 640"><g fill="none" stroke="currentColor"><path stroke-linecap="round" stroke-width="5" d="M420 640c-20-80 10-150-30-220s-10-150-50-220q-45-75-150-120"/><path stroke-linejoin="round" stroke-width="2.519" d="M406 560c-3.7 10.83-8.83 17.31-16.07 17.26.65 9.41-7.35 14.42-13.83 9.3-1.52 10.13-11.7 15.85-18.9 8.55-4.4 8.66-16 10.02-18.83 1.3-5.83 4.3-16.66.6-23.85-6.7 1.53-10.12 8.12-19.48 15.36-19.43-2.83-8.71 7.35-14.43 16-10.02 1.53-10.12 13.13-11.48 20.31-4.19 2.24-7.95 11.66-8.6 16.67-.6 5.82-4.3 13.77-2.06 23.13 4.53Z"/><path stroke-linecap="round" stroke-width="1.832" d="m406 560-82.77 26.89m63.16-20.52-4.05 9.74m-11.2-4.8-2.99 13.02m-16.6-6.64-3 13.01m37.84-24.33-9-5.5m-6.24 10.45-10.07-8.77m-9.53 15.14-10.08-8.77"/><path stroke-linejoin="round" stroke-width="3.003" d="M406 559.99c-11.43 7.46-21 9.79-27.76 4.42-6.3 9.33-17.5 8.16-19.82-1.4-8.87 8.4-22.63 6.29-24.02-5.84-10.5 4.9-22.4-2.34-18.66-12.6-8.63-.24-16.09-11.67-17.49-23.8 8.87-8.4 21.93-12.35 28.7-6.99 3.73-10.26 17.49-8.15 22.38 2.34 8.87-8.4 20.76-1.16 22.16 10.97 7.93-5.83 17.26.47 16.09 11.67 8.63.23 14.46 8.17 18.42 21.23Z"/><path stroke-linecap="round" stroke-width="2.184" d="m406 559.99-97.48-35.48m74.4 27.08-10.97 6.17m-7-12.71-12.36 10.02m-10.73-18.42-12.36 10.02m53.41 4.92-4.43-11.78m-13.53 5.24-3.02-15.63m-20.07 7.23-3.02-15.63"/><path stroke-linejoin="round" stroke-width="2.519" d="M405.99 560c-11.41-.97-18.94-4.37-20.64-11.4-8.98 2.9-15.77-3.65-12.37-11.18-10.2.97-18.2-7.52-12.87-16.26-9.46-2.19-13.59-13.11-5.82-17.96-5.58-4.62-4.61-16.03.73-24.76 10.2-.97 20.87 3.15 22.57 10.2 7.77-4.86 15.78 3.64 13.6 13.1 10.19-.97 14.32 9.96 8.97 18.7 8.26.24 11.17 9.22 4.61 16.02 5.59 4.6 5.34 12.86 1.22 23.54Z"/><path stroke-linecap="round" stroke-width="1.832" d="m405.99 560-46.12-73.8m35.2 56.32-10.44-1.58m1.94-12.01-13.35.24m2.43-17.72-13.35.24m32.76 30.83 3.16-10.07m-11.65-3.52 6.07-11.9m-17-5.58 6.08-11.9"/><path stroke-linejoin="round" stroke-width="2.519" d="M372 420c-2.74 11.11-7.27 18.01-14.49 18.59 1.47 9.32-6.06 15.01-12.97 10.48-.63 10.22-10.28 16.8-18.07 10.16-3.64 9-15.08 11.37-18.66 2.94-5.42 4.8-16.54 2.05-24.34-4.6.64-10.22 6.39-20.12 13.6-20.7-3.57-8.43 6.07-15.01 15.08-11.37.64-10.22 12.07-12.59 19.87-5.95 1.53-8.1 10.86-9.58 16.54-2.04 5.43-4.8 13.55-3.26 23.45 2.48Z"/><path stroke-linecap="round" stroke-width="1.832" d="m372 420-80.1 34m61.14-25.95-3.2 10.06m-11.56-3.8-1.85 13.22m-17.12-5.17-1.85 13.23m35.58-27.54-9.46-4.7m-5.3 10.96-10.8-7.86m-8.17 15.91-10.8-7.85"/><path stroke-linejoin="round" stroke-width="3.003" d="M372 420c-10.73 8.42-20.05 11.58-27.26 6.82-5.46 9.84-16.72 9.65-19.87.33-8.1 9.13-22 8.24-24.44-3.72-10.03 5.79-22.5-.38-19.68-10.93-8.62.52-17.05-10.22-19.5-22.18 8.1-9.14 20.77-14.22 27.98-9.46 2.82-10.55 16.71-9.66 22.5.38 8.1-9.14 20.58-2.97 23.03 9 7.4-6.5 17.24-1.04 17.05 10.21 8.61-.52 15.11 6.88 20.2 19.55Z"/><path stroke-linecap="round" stroke-width="2.184" d="m372 420-100.2-26.85m76.47 20.49-10.38 7.1m-8.08-12.05-11.44 11.07m-12.29-17.43-11.44 11.07m53.63.24-5.43-11.35m-13.03 6.4-4.37-15.3m-19.36 8.94-4.38-15.3"/><path stroke-linejoin="round" stroke-width="2.519" d="M372 420c-11.45.02-19.24-2.71-21.55-9.58-8.7 3.69-16.03-2.25-13.3-10.04-10.07 1.85-18.8-5.91-14.24-15.08-9.62-1.36-14.68-11.88-7.36-17.4-5.97-4.1-6-15.55-1.43-24.72 10.07-1.86 21.07 1.33 23.37 8.19 7.32-5.51 16.04 2.25 14.69 11.88 10.07-1.86 15.13 8.66 10.57 17.83 8.24-.47 11.93 8.22 6 15.56 5.95 4.11 6.43 12.35 3.25 23.35Z"/><path stroke-linecap="round" stroke-width="1.832" d="m372 420-52.37-69.5m39.97 53.03-10.54-.66m.89-12.14-13.28 1.4m.88-17.86-13.28 1.4m35.33 27.86 2.26-10.3m-11.91-2.5 5-12.38m-17.4-4.08 5-12.38"/><path stroke-width="1.573" d="m372 420-5.47 4.6"/><path stroke-linejoin="round" stroke-width="1.573" d="M372.05 431.17c-3.64 6.79-8.94 9.37-16.47 2.62-5.34-8.59-1.88-13.36 5.44-15.77Z"/><path stroke-width="1.001" d="m368.94 431.91-13.75-5.26m11.38 9.11-11.74-5.08m11.52-4.07-10.81-3.99m13.22 11.3-5.16-10.6"/><path stroke-width="1.573" d="M360.17 439.27c-8.94 9.36-18.27 11.6-22.12 9.23-1.66-4.21 2.15-13.01 12.93-20.19"/><path stroke-linecap="round" stroke-width="1.573" d="m338.05 448.5-2.2 1.83"/><path stroke-width="1.001" d="M352.86 441.67q-6.05-.53-5.52-6.57m.04 11.17q-6.04-.53-5.52-6.58"/><path stroke-width="1.4300000000000002" d="m372 420-6.35 1.35"/><path stroke-linejoin="round" stroke-width="1.4300000000000002" d="M367.27 428.98c-5.82 3.9-11.18 3.7-14.34-4.92-.62-9.18 4.2-11.53 11.1-10.34Z"/><path stroke-width=".9099999999999999" d="m364.45 428.25-8.79-10.1m5.25 12.18-7.25-9.09m10.98 1.65-6.97-7.82m5.78 14.72.38-10.71"/><path stroke-width="1.4300000000000002" d="M354.28 430.41c-11.17 3.7-19.61 1.51-21.7-2.03.47-4.09 7.28-9.52 19-10.68"/><path stroke-linecap="round" stroke-width="1.4300000000000002" d="m332.58 428.38-2.54.54"/><path stroke-width=".9099999999999999" d="M347.38 429.22q-4.62-3-1.62-7.63m-4.74 8.98q-4.62-3-1.62-7.63"/><path stroke-linejoin="round" stroke-width="2.387" d="M340 230c-5.6-9.29-7.19-16.95-2.74-22.17-7.23-5.26-6-14.12 1.67-15.71-6.42-7.28-4.37-18.15 5.3-18.92-3.6-8.48 2.48-17.72 10.53-14.47.43-6.85 9.72-12.46 19.39-13.23 6.42 7.27 9.2 17.76 4.76 22.98 8.04 3.26 6 14.13-2.48 17.73 6.42 7.27.34 16.52-9.33 17.3 4.4 6.45-.86 13.69-9.72 12.45-.42 6.85-6.89 11.26-17.37 14.04Z"/><path stroke-linecap="round" stroke-width="1.736" d="m340 230 30.9-76.45m-23.58 58.34-4.6-8.88m10.3-5.2-7.63-10.1m14.94-8-7.62-10.1m-5.39 42.28 9.48-3.19m-3.79-10.89 12.5-1.97m-5.18-16.14 12.5-1.97"/><path stroke-linejoin="round" stroke-width="2.849" d="M340 230c1.55-12.86 5.69-21.23 13.71-22.87-2.93-10.27 4.74-17.69 13.11-13.55-.69-11.56 9.23-20.28 18.9-13.9 2.84-10.61 15.35-14.84 20.53-5.87 5.43-6.13 18.3-4.58 27.96 1.8.7 11.56-4.4 23.47-12.42 25.11 5.18 8.98-4.74 17.7-15.35 14.85.69 11.56-11.82 15.8-21.49 9.41-.6 9.32-10.86 12.26-18.29 4.58-5.43 6.13-14.75 5.53-26.66.44Z"/><path stroke-linecap="round" stroke-width="2.072" d="m340 230 85.24-49.2m-65.05 37.55 2.2-11.74m13.5 2.67.25-15.1m19.94 3.45.25-15.1m-36.14 35.82 11.26 3.96m4.44-13.03 13.2 7.33m6.99-18.98 13.2 7.33"/><path stroke-linejoin="round" stroke-width="2.387" d="M340 230c7.65-7.69 14.7-11.08 20.85-8.03 3.36-8.29 12.25-9.23 15.65-2.18 5.5-8 16.55-8.63 19.64.57 7.35-5.54 17.8-1.88 16.58 6.71 6.75-1.24 14.44 6.42 17.53 15.61-5.5 8-15 13.23-21.15 10.18-1.2 8.6-12.25 9.23-17.8 1.88-5.5 8-15.94 4.33-19.03-4.87-5.2 5.85-13.5 2.49-14.44-6.4-6.75 1.24-12.6-3.97-17.83-13.47Z"/><path stroke-linecap="round" stroke-width="1.736" d="m340 230 81.66 11.48m-62.32-8.76 7.5-6.62m7.54 8.73 7.96-9.84m11.38 12.56 7.96-9.84m-42.34 5 5.39 8.44m9.65-6.32 4.94 11.65m14.4-8.93 4.94 11.65"/><path stroke-linejoin="round" stroke-width="2.255" d="M210 92c10.13 1.58 16.63 5.09 17.71 11.48 8.2-2.04 13.86 4.24 10.36 10.75 9.16-.23 15.79 7.86 10.47 15.32 8.32 2.55 11.32 12.56 4.08 16.41 4.7 4.47 3.12 14.6-2.2 22.06-9.16.23-18.44-4.12-19.52-10.51-7.24 3.85-13.86-4.24-11.32-12.56-9.17.23-12.17-9.78-6.85-17.25-7.36-.73-9.4-8.93-3.12-14.6-4.7-4.46-3.96-11.82.39-21.1Z"/><path stroke-linecap="round" stroke-width="1.64" d="m210 92 36.57 68.78m-27.9-52.49 9.21 2.07m-2.48 10.6 11.94.62m-3.28 15.67 11.94.62m-27.34-29.58-3.45 8.8m10.19 3.87-6.17 10.25m14.83 6.04-6.16 10.25"/><path stroke-linejoin="round" stroke-width="2.706" d="M210 92c8.4 8.97 11.97 17.1 8.26 23.93 9.26 4.14 9.98 14.25 1.86 17.82 8.83 6.55 9.12 19.1-1.43 22.23 6 8.55 1.43 20.23-8.26 18.52 1.14 7.7-7.83 16.1-18.38 19.25-8.83-6.56-14.4-17.53-10.69-24.37-9.69-1.71-9.98-14.25-1.43-20.24-8.83-6.55-4.28-18.24 6.27-21.37-6.41-6.13-2.28-15.4 7.84-16.1-1.15-7.7 4.98-14.12 15.95-19.68Z"/><path stroke-linecap="round" stroke-width="1.968" d="m210 92-16.24 92.05m12.39-70.25 7.2 8.76m-10.2 8.2 10.84 9.4m-14.68 12.4 10.84 9.4m-4-48.16-9.76 5.77m6.77 11.19-13.4 5.13m9.55 16.67-13.4 5.13"/><path stroke-linejoin="round" stroke-width="2.255" d="M210 92c.9 10.2-.92 17.36-6.86 19.95 3.96 7.47-.76 14.48-7.92 12.65 2.44 8.84-3.8 17.22-12.34 13.87-.46 8.69-9.44 14.02-14.93 7.93-3.2 5.64-13.4 6.55-21.94 3.2-2.44-8.83-.46-18.9 5.48-21.48-5.49-6.1.76-14.48 9.44-14.02-2.44-8.84 6.55-14.18 15.09-10.83-1.07-7.3 6.4-11.27 13.4-6.55 3.2-5.64 10.52-6.7 20.57-4.73Z"/><path stroke-linecap="round" stroke-width="1.64" d="m210 92-57.9 52.12m44.18-39.78.23 9.44m-10.9.16 2.3 11.73m-16 .61 2.28 11.74m22.1-33.68-9.38-1.22m-1.3 10.82-11.42-3.5m-2.28 15.84-11.43-3.5"/><path stroke-width="1.573" d="m210 92 2.45 6.73"/><path stroke-linejoin="round" stroke-width="1.573" d="M220.5 95.8c5.14 5.73 5.75 11.6-3.16 16.36-9.9 2.08-13.2-2.8-12.96-10.5Z"/><path stroke-width="1.001" d="m220.14 98.97-9.65 11.12m12.46-7.58-8.79 9.29m.12-12.22-7.45 8.8m15.15-8.56-11.73 1.23"/><path stroke-width="1.573" d="M224.06 109.72c5.74 11.6 4.64 21.13 1.1 23.94-4.52.13-11.48-6.47-14.54-19.05"/><path stroke-linecap="round" stroke-width="1.573" d="m225.16 133.66.98 2.7"/><path stroke-width="1.001" d="M223.81 117.42q-2.56 5.5-8.06 2.93m10.5 3.78q-2.55 5.5-8.05 2.94"/><path stroke-width="1.4300000000000002" d="m210 92-.9 6.45"/><path stroke-linejoin="round" stroke-width="1.4300000000000002" d="M216.82 99.53c1.67 6.8-.34 11.77-9.53 11.79-8.83-2.56-9.4-7.89-5.92-13.96Z"/><path stroke-width=".9099999999999999" d="m215.17 101.92-12.49 4.81m13.24-.76-11.03 3.7m5.31-9.76-9.73 3.89m15.8-.4-9.93-4.03"/><path stroke-width="1.4300000000000002" d="M213.72 112.22c-.34 11.77-5.28 18.95-9.33 19.7-3.68-1.83-6.45-10.1-3.54-21.5"/><path stroke-linecap="round" stroke-width="1.4300000000000002" d="m204.4 131.92-.37 2.57"/><path stroke-width=".9099999999999999" d="M210.25 118.3q-4.41 3.32-7.73-1.09m6.82 7.52q-4.4 3.32-7.72-1.08"/></g></svg>
